<svg xmlns="http://www.w3.org/2000/svg" xmlns:xlink="http://www.w3.org/1999/xlink" width="300" zoomAndPan="magnify" viewBox="0 0 224.87999 225" height="300" preserveAspectRatio="xMidYMid meet" version="1.0"><defs><clipPath id="437e1fffe1"><path d="M 0 0.0585938 L 224.761719 0.0585938 L 224.761719 224.9375 L 0 224.9375 Z M 0 0.0585938 " clip-rule="nonzero"/></clipPath><clipPath id="0a0e121d22"><path d="M 0 0.0585938 L 224.761719 0.0585938 L 224.761719 224.9375 L 0 224.9375 Z M 0 0.0585938 " clip-rule="nonzero"/></clipPath><clipPath id="e2b8029b86"><path d="M 206.890625 224.941406 L 17.992188 224.941406 C 8.054688 224.941406 0 216.886719 0 206.949219 L 0 18.050781 C 0 8.113281 8.054688 0.0585938 17.992188 0.0585938 L 206.890625 0.0585938 C 216.824219 0.0585938 224.878906 8.113281 224.878906 18.050781 L 224.878906 206.949219 C 224.878906 216.886719 216.824219 224.941406 206.890625 224.941406 Z M 206.890625 224.941406 " clip-rule="nonzero"/></clipPath><clipPath id="ec288f2da1"><path d="M 0 0.0585938 L 224.761719 0.0585938 L 224.761719 224.9375 L 0 224.9375 Z M 0 0.0585938 " clip-rule="nonzero"/></clipPath><clipPath id="e086b7dd06"><path d="M 206.890625 224.941406 L 17.992188 224.941406 C 8.054688 224.941406 0 216.886719 0 206.949219 L 0 18.050781 C 0 8.113281 8.054688 0.0585938 17.992188 0.0585938 L 206.890625 0.0585938 C 216.824219 0.0585938 224.878906 8.113281 224.878906 18.050781 L 224.878906 206.949219 C 224.878906 216.886719 216.824219 224.941406 206.890625 224.941406 Z M 206.890625 224.941406 " clip-rule="nonzero"/></clipPath><clipPath id="3fffe2d295"><rect x="0" width="225" y="0" height="225"/></clipPath><clipPath id="51bdefcf7d"><rect x="0" width="225" y="0" height="225"/></clipPath><clipPath id="7d37fcbde2"><path d="M 43.511719 46.597656 L 178.4375 46.597656 L 178.4375 181.523438 L 43.511719 181.523438 Z M 43.511719 46.597656 " clip-rule="nonzero"/></clipPath></defs><g clip-path="url(#437e1fffe1)"><g transform="matrix(1, 0, 0, 1, 0, -0.000000000000003234)"><g clip-path="url(#51bdefcf7d)"><g clip-path="url(#0a0e121d22)"><g clip-path="url(#e2b8029b86)"><g transform="matrix(1, 0, 0, 1, 0, -0.000000000000003234)"><g clip-path="url(#3fffe2d295)"><g clip-path="url(#ec288f2da1)"><g clip-path="url(#e086b7dd06)"><path fill="#010409" d="M 224.878906 224.941406 L 0 224.941406 L 0 0.0585938 L 224.878906 0.0585938 Z M 224.878906 224.941406 " fill-opacity="1" fill-rule="nonzero"/></g></g></g></g></g></g></g></g></g><g clip-path="url(#7d37fcbde2)"><path fill="#f03c2e" d="M 175.890625 108.050781 L 116.984375 49.144531 C 116.578125 48.738281 116.140625 48.378906 115.667969 48.0625 C 115.191406 47.746094 114.691406 47.476562 114.164062 47.257812 C 113.636719 47.039062 113.09375 46.875 112.535156 46.765625 C 111.976562 46.652344 111.410156 46.597656 110.839844 46.597656 C 110.269531 46.597656 109.703125 46.652344 109.144531 46.765625 C 108.585938 46.875 108.042969 47.039062 107.515625 47.257812 C 106.988281 47.476562 106.488281 47.746094 106.011719 48.0625 C 105.539062 48.378906 105.097656 48.738281 104.695312 49.144531 L 92.46875 61.371094 L 107.984375 76.886719 C 111.59375 75.621094 115.726562 76.488281 118.601562 79.363281 C 119.285156 80.046875 119.863281 80.816406 120.332031 81.664062 C 120.800781 82.511719 121.144531 83.40625 121.359375 84.351562 C 121.578125 85.296875 121.660156 86.25 121.605469 87.21875 C 121.554688 88.1875 121.367188 89.128906 121.050781 90.042969 L 136.007812 105 C 139.625 103.75 143.800781 104.554688 146.6875 107.453125 C 147.167969 107.933594 147.597656 108.457031 147.976562 109.019531 C 148.351562 109.585938 148.671875 110.179688 148.929688 110.808594 C 149.191406 111.4375 149.386719 112.082031 149.519531 112.75 C 149.652344 113.414062 149.71875 114.085938 149.71875 114.765625 C 149.71875 115.445312 149.652344 116.117188 149.519531 116.785156 C 149.386719 117.449219 149.191406 118.097656 148.933594 118.726562 C 148.671875 119.351562 148.355469 119.949219 147.976562 120.515625 C 147.597656 121.078125 147.171875 121.601562 146.691406 122.082031 C 146.210938 122.5625 145.6875 122.992188 145.121094 123.367188 C 144.558594 123.746094 143.960938 124.0625 143.332031 124.324219 C 142.707031 124.582031 142.058594 124.777344 141.390625 124.910156 C 140.726562 125.042969 140.054688 125.109375 139.375 125.109375 C 138.695312 125.109375 138.023438 125.042969 137.355469 124.910156 C 136.691406 124.777344 136.042969 124.582031 135.414062 124.320312 C 134.789062 124.058594 134.191406 123.742188 133.628906 123.363281 C 133.0625 122.984375 132.542969 122.554688 132.0625 122.074219 C 129.023438 119.039062 128.273438 114.570312 129.808594 110.832031 L 115.863281 96.882812 L 115.863281 133.585938 C 116.878906 134.089844 117.792969 134.742188 118.601562 135.542969 C 119.082031 136.023438 119.511719 136.546875 119.886719 137.109375 C 120.265625 137.675781 120.582031 138.269531 120.84375 138.898438 C 121.101562 139.523438 121.300781 140.171875 121.433594 140.835938 C 121.5625 141.503906 121.628906 142.175781 121.628906 142.855469 C 121.628906 143.535156 121.5625 144.207031 121.433594 144.871094 C 121.300781 145.539062 121.101562 146.183594 120.84375 146.8125 C 120.582031 147.4375 120.265625 148.035156 119.886719 148.597656 C 119.511719 149.164062 119.082031 149.6875 118.601562 150.167969 C 118.121094 150.644531 117.601562 151.074219 117.035156 151.453125 C 116.46875 151.828125 115.875 152.148438 115.246094 152.40625 C 114.621094 152.667969 113.972656 152.863281 113.308594 152.996094 C 112.640625 153.128906 111.96875 153.195312 111.289062 153.195312 C 110.613281 153.195312 109.9375 153.128906 109.273438 152.996094 C 108.609375 152.863281 107.960938 152.667969 107.332031 152.40625 C 106.707031 152.148438 106.109375 151.828125 105.546875 151.453125 C 104.980469 151.074219 104.460938 150.644531 103.980469 150.167969 C 103.5 149.6875 103.070312 149.164062 102.691406 148.601562 C 102.3125 148.035156 101.996094 147.441406 101.734375 146.8125 C 101.476562 146.183594 101.277344 145.539062 101.144531 144.871094 C 101.011719 144.207031 100.945312 143.535156 100.945312 142.855469 C 100.945312 142.175781 101.011719 141.503906 101.144531 140.835938 C 101.277344 140.171875 101.476562 139.523438 101.734375 138.898438 C 101.996094 138.269531 102.3125 137.671875 102.691406 137.109375 C 103.070312 136.546875 103.5 136.023438 103.980469 135.542969 C 104.980469 134.546875 106.085938 133.792969 107.363281 133.289062 L 107.363281 96.242188 C 106.132812 95.734375 104.980469 94.988281 103.980469 93.984375 C 103.253906 93.261719 102.648438 92.445312 102.164062 91.539062 C 101.683594 90.636719 101.34375 89.679688 101.144531 88.671875 C 100.945312 87.664062 100.898438 86.652344 101.003906 85.632812 C 101.105469 84.609375 101.355469 83.628906 101.753906 82.679688 L 86.445312 67.382812 L 46.054688 107.734375 C 45.648438 108.140625 45.289062 108.578125 44.972656 109.050781 C 44.652344 109.527344 44.386719 110.027344 44.167969 110.554688 C 43.949219 111.082031 43.785156 111.625 43.671875 112.183594 C 43.5625 112.746094 43.503906 113.308594 43.503906 113.882812 C 43.503906 114.453125 43.5625 115.015625 43.671875 115.578125 C 43.785156 116.136719 43.949219 116.679688 44.167969 117.207031 C 44.386719 117.734375 44.652344 118.234375 44.972656 118.710938 C 45.289062 119.183594 45.648438 119.625 46.054688 120.027344 L 104.964844 178.929688 C 105.371094 179.335938 105.808594 179.695312 106.28125 180.011719 C 106.757812 180.328125 107.257812 180.597656 107.785156 180.816406 C 108.3125 181.035156 108.855469 181.199219 109.414062 181.308594 C 109.972656 181.421875 110.539062 181.476562 111.109375 181.476562 C 111.679688 181.476562 112.246094 181.421875 112.804688 181.308594 C 113.363281 181.199219 113.90625 181.035156 114.433594 180.816406 C 114.960938 180.597656 115.460938 180.328125 115.9375 180.011719 C 116.410156 179.695312 116.847656 179.335938 117.253906 178.929688 L 175.890625 120.386719 C 176.296875 119.980469 176.65625 119.542969 176.972656 119.066406 C 177.289062 118.59375 177.558594 118.09375 177.777344 117.566406 C 177.996094 117.039062 178.160156 116.496094 178.273438 115.933594 C 178.382812 115.375 178.4375 114.808594 178.4375 114.238281 C 178.4375 113.667969 178.382812 113.101562 178.273438 112.542969 C 178.160156 111.984375 177.996094 111.441406 177.777344 110.914062 C 177.558594 110.386719 177.289062 109.886719 176.972656 109.410156 C 176.65625 108.9375 176.296875 108.496094 175.890625 108.09375 " fill-opacity="1" fill-rule="nonzero"/></g></svg>