<svg xmlns="http://www.w3.org/2000/svg" xmlns:xlink="http://www.w3.org/1999/xlink" width="300" zoomAndPan="magnify" viewBox="0 0 224.87999 225" height="300" preserveAspectRatio="xMidYMid meet" version="1.0"><defs><clipPath id="fcfe754617"><path d="M 0 0.0585938 L 224.761719 0.0585938 L 224.761719 224.9375 L 0 224.9375 Z M 0 0.0585938 " clip-rule="nonzero"/></clipPath><clipPath id="a137b89959"><path d="M 0 0.0585938 L 224.761719 0.0585938 L 224.761719 224.9375 L 0 224.9375 Z M 0 0.0585938 " clip-rule="nonzero"/></clipPath><clipPath id="0599198bec"><path d="M 206.890625 224.941406 L 17.992188 224.941406 C 8.054688 224.941406 0 216.886719 0 206.949219 L 0 18.050781 C 0 8.113281 8.054688 0.0585938 17.992188 0.0585938 L 206.890625 0.0585938 C 216.824219 0.0585938 224.878906 8.113281 224.878906 18.050781 L 224.878906 206.949219 C 224.878906 216.886719 216.824219 224.941406 206.890625 224.941406 Z M 206.890625 224.941406 " clip-rule="nonzero"/></clipPath><clipPath id="a4c2ce47c6"><path d="M 0 0.0585938 L 224.761719 0.0585938 L 224.761719 224.9375 L 0 224.9375 Z M 0 0.0585938 " clip-rule="nonzero"/></clipPath><clipPath id="4f002f6ba1"><path d="M 206.890625 224.941406 L 17.992188 224.941406 C 8.054688 224.941406 0 216.886719 0 206.949219 L 0 18.050781 C 0 8.113281 8.054688 0.0585938 17.992188 0.0585938 L 206.890625 0.0585938 C 216.824219 0.0585938 224.878906 8.113281 224.878906 18.050781 L 224.878906 206.949219 C 224.878906 216.886719 216.824219 224.941406 206.890625 224.941406 Z M 206.890625 224.941406 " clip-rule="nonzero"/></clipPath><clipPath id="895a168580"><rect x="0" width="225" y="0" height="225"/></clipPath><clipPath id="97a9069dc8"><rect x="0" width="225" y="0" height="225"/></clipPath></defs><g clip-path="url(#fcfe754617)"><g transform="matrix(1, 0, 0, 1, 0, -0.000000000000003234)"><g clip-path="url(#97a9069dc8)"><g clip-path="url(#a137b89959)"><g clip-path="url(#0599198bec)"><g transform="matrix(1, 0, 0, 1, 0, -0.000000000000003234)"><g clip-path="url(#895a168580)"><g clip-path="url(#a4c2ce47c6)"><g clip-path="url(#4f002f6ba1)"><path fill="#010409" d="M 224.878906 224.941406 L 0 224.941406 L 0 0.0585938 L 224.878906 0.0585938 Z M 224.878906 224.941406 " fill-opacity="1" fill-rule="nonzero"/></g></g></g></g></g></g></g></g></g><path fill="#ffffff" d="M 112.304688 46.949219 C 75.71875 46.949219 46.089844 76.582031 46.089844 113.164062 C 46.089844 142.464844 65.042969 167.210938 91.363281 175.984375 C 94.675781 176.566406 95.914062 174.578125 95.914062 172.839844 C 95.914062 171.269531 95.832031 166.054688 95.832031 160.507812 C 79.195312 163.570312 74.894531 156.453125 73.570312 152.726562 C 72.824219 150.824219 69.59375 144.949219 66.78125 143.375 C 64.464844 142.132812 61.152344 139.070312 66.699219 138.988281 C 71.914062 138.90625 75.636719 143.789062 76.878906 145.777344 C 82.839844 155.789062 92.355469 152.976562 96.164062 151.238281 C 96.742188 146.933594 98.480469 144.039062 100.386719 142.382812 C 85.652344 140.726562 70.257812 135.015625 70.257812 109.6875 C 70.257812 102.488281 72.824219 96.527344 77.042969 91.894531 C 76.382812 90.238281 74.066406 83.453125 77.707031 74.347656 C 77.707031 74.347656 83.253906 72.609375 95.914062 81.132812 C 101.214844 79.644531 106.839844 78.898438 112.46875 78.898438 C 118.097656 78.898438 123.726562 79.644531 129.023438 81.132812 C 141.6875 72.527344 147.234375 74.347656 147.234375 74.347656 C 150.875 83.453125 148.558594 90.238281 147.894531 91.894531 C 152.117188 96.527344 154.679688 102.40625 154.679688 109.6875 C 154.679688 135.097656 139.203125 140.726562 124.472656 142.382812 C 126.871094 144.453125 128.941406 148.425781 128.941406 154.632812 C 128.941406 163.488281 128.859375 170.605469 128.859375 172.839844 C 128.859375 174.578125 130.097656 176.648438 133.410156 175.984375 C 160.363281 166.886719 178.511719 141.613281 178.519531 113.164062 C 178.519531 76.582031 148.886719 46.949219 112.304688 46.949219 Z M 112.304688 46.949219 " fill-opacity="1" fill-rule="nonzero"/></svg>