<svg xmlns="http://www.w3.org/2000/svg" xmlns:xlink="http://www.w3.org/1999/xlink" width="300" zoomAndPan="magnify" viewBox="0 0 224.87999 225" height="300" preserveAspectRatio="xMidYMid meet" version="1.0"><defs><clipPath id="e58ced4a20"><path d="M 0 0.0585938 L 224.761719 0.0585938 L 224.761719 224.9375 L 0 224.9375 Z M 0 0.0585938 " clip-rule="nonzero"/></clipPath><clipPath id="b2d108b443"><path d="M 0 0.0585938 L 224.761719 0.0585938 L 224.761719 224.9375 L 0 224.9375 Z M 0 0.0585938 " clip-rule="nonzero"/></clipPath><clipPath id="b1eef2b685"><path d="M 206.890625 224.941406 L 17.992188 224.941406 C 8.054688 224.941406 0 216.886719 0 206.949219 L 0 18.050781 C 0 8.113281 8.054688 0.0585938 17.992188 0.0585938 L 206.890625 0.0585938 C 216.824219 0.0585938 224.878906 8.113281 224.878906 18.050781 L 224.878906 206.949219 C 224.878906 216.886719 216.824219 224.941406 206.890625 224.941406 Z M 206.890625 224.941406 " clip-rule="nonzero"/></clipPath><clipPath id="d085c6b966"><path d="M 0 0.0585938 L 224.761719 0.0585938 L 224.761719 224.9375 L 0 224.9375 Z M 0 0.0585938 " clip-rule="nonzero"/></clipPath><clipPath id="75f0e9a674"><path d="M 206.890625 224.941406 L 17.992188 224.941406 C 8.054688 224.941406 0 216.886719 0 206.949219 L 0 18.050781 C 0 8.113281 8.054688 0.0585938 17.992188 0.0585938 L 206.890625 0.0585938 C 216.824219 0.0585938 224.878906 8.113281 224.878906 18.050781 L 224.878906 206.949219 C 224.878906 216.886719 216.824219 224.941406 206.890625 224.941406 Z M 206.890625 224.941406 " clip-rule="nonzero"/></clipPath><clipPath id="846e4a2686"><rect x="0" width="225" y="0" height="225"/></clipPath><clipPath id="160d07e5ec"><rect x="0" width="225" y="0" height="225"/></clipPath><clipPath id="936fb2cd41"><path d="M 44.871094 35.46875 L 179.800781 35.46875 L 179.800781 189.886719 L 44.871094 189.886719 Z M 44.871094 35.46875 " clip-rule="nonzero"/></clipPath></defs><g clip-path="url(#e58ced4a20)"><g transform="matrix(1, 0, 0, 1, 0, -0.000000000000003234)"><g clip-path="url(#160d07e5ec)"><g clip-path="url(#b2d108b443)"><g clip-path="url(#b1eef2b685)"><g transform="matrix(1, 0, 0, 1, 0, -0.000000000000003234)"><g clip-path="url(#846e4a2686)"><g clip-path="url(#d085c6b966)"><g clip-path="url(#75f0e9a674)"><path fill="#ff572d" d="M 224.878906 224.941406 L 0 224.941406 L 0 0.0585938 L 224.878906 0.0585938 Z M 224.878906 224.941406 " fill-opacity="1" fill-rule="nonzero"/></g></g></g></g></g></g></g></g></g><g clip-path="url(#936fb2cd41)"><path fill="#e44d26" d="M 57.121094 174.113281 L 44.832031 35.902344 L 179.835938 35.902344 L 167.542969 174.09375 L 112.25 189.457031 Z M 57.121094 174.113281 " fill-opacity="1" fill-rule="nonzero"/></g><path fill="#f16529" d="M 157.011719 165.292969 L 167.523438 47.203125 L 112.335938 47.203125 L 112.335938 177.714844 Z M 157.011719 165.292969 " fill-opacity="1" fill-rule="nonzero"/><path fill="#ebebeb" d="M 112.277344 64.152344 L 69.953125 64.152344 L 74.511719 115.414062 L 112.335938 115.414062 L 112.335938 98.464844 L 89.972656 98.464844 L 88.425781 81.105469 L 112.335938 81.105469 L 112.335938 64.152344 Z M 112.335938 142.429688 L 112.265625 142.449219 L 93.441406 137.351562 L 92.246094 123.835938 L 75.269531 123.835938 L 77.636719 150.449219 L 112.257812 160.046875 L 112.335938 160.023438 Z M 112.335938 142.429688 " fill-opacity="1" fill-rule="nonzero"/><path fill="#ffffff" d="M 112.277344 115.414062 L 133.089844 115.414062 L 131.175781 137.390625 L 112.324219 142.492188 L 112.324219 160.128906 L 146.976562 150.496094 L 151.617188 98.453125 L 112.335938 98.453125 Z M 154.210938 68.703125 L 154.613281 64.152344 L 112.269531 64.152344 L 112.269531 81.101562 L 153.089844 81.101562 L 153.425781 77.292969 Z M 154.210938 68.703125 " fill-opacity="1" fill-rule="nonzero"/></svg>