<svg xmlns="http://www.w3.org/2000/svg" xmlns:xlink="http://www.w3.org/1999/xlink" width="300" zoomAndPan="magnify" viewBox="0 0 224.87999 225" height="300" preserveAspectRatio="xMidYMid meet" version="1.0"><defs><clipPath id="266df88f59"><path d="M 0 0.0585938 L 224.761719 0.0585938 L 224.761719 224.9375 L 0 224.9375 Z M 0 0.0585938 " clip-rule="nonzero"/></clipPath><clipPath id="17679a940e"><path d="M 0 0.0585938 L 224.761719 0.0585938 L 224.761719 224.9375 L 0 224.9375 Z M 0 0.0585938 " clip-rule="nonzero"/></clipPath><clipPath id="dfe7a25246"><path d="M 206.890625 224.941406 L 17.992188 224.941406 C 8.054688 224.941406 0 216.886719 0 206.949219 L 0 18.050781 C 0 8.113281 8.054688 0.0585938 17.992188 0.0585938 L 206.890625 0.0585938 C 216.824219 0.0585938 224.878906 8.113281 224.878906 18.050781 L 224.878906 206.949219 C 224.878906 216.886719 216.824219 224.941406 206.890625 224.941406 Z M 206.890625 224.941406 " clip-rule="nonzero"/></clipPath><clipPath id="74be78b545"><path d="M 0 0.0585938 L 224.761719 0.0585938 L 224.761719 224.9375 L 0 224.9375 Z M 0 0.0585938 " clip-rule="nonzero"/></clipPath><clipPath id="ece9161a65"><path d="M 206.890625 224.941406 L 17.992188 224.941406 C 8.054688 224.941406 0 216.886719 0 206.949219 L 0 18.050781 C 0 8.113281 8.054688 0.0585938 17.992188 0.0585938 L 206.890625 0.0585938 C 216.824219 0.0585938 224.878906 8.113281 224.878906 18.050781 L 224.878906 206.949219 C 224.878906 216.886719 216.824219 224.941406 206.890625 224.941406 Z M 206.890625 224.941406 " clip-rule="nonzero"/></clipPath><clipPath id="bf10c2f137"><rect x="0" width="225" y="0" height="225"/></clipPath><clipPath id="bba29b28a6"><rect x="0" width="225" y="0" height="225"/></clipPath><clipPath id="922bffb3a2"><path d="M 45 52 L 179.902344 52 L 179.902344 173 L 45 173 Z M 45 52 " clip-rule="nonzero"/></clipPath></defs><g clip-path="url(#266df88f59)"><g transform="matrix(1, 0, 0, 1, 0, -0.000000000000003234)"><g clip-path="url(#bba29b28a6)"><g clip-path="url(#17679a940e)"><g clip-path="url(#dfe7a25246)"><g transform="matrix(1, 0, 0, 1, 0, -0.000000000000003234)"><g clip-path="url(#bf10c2f137)"><g clip-path="url(#74be78b545)"><g clip-path="url(#ece9161a65)"><path fill="#00346d" d="M 224.878906 224.941406 L 0 224.941406 L 0 0.0585938 L 224.878906 0.0585938 Z M 224.878906 224.941406 " fill-opacity="1" fill-rule="nonzero"/></g></g></g></g></g></g></g></g></g><g clip-path="url(#922bffb3a2)"><path fill="#00d8ff" d="M 155.824219 91.523438 C 154.429688 91.042969 152.980469 90.585938 151.488281 90.15625 C 151.734375 89.152344 151.960938 88.164062 152.160156 87.191406 C 155.4375 71.222656 153.296875 58.359375 145.972656 54.125 C 138.945312 50.0625 127.457031 54.296875 115.855469 64.421875 C 114.738281 65.394531 113.617188 66.425781 112.503906 67.503906 C 111.757812 66.789062 111.015625 66.097656 110.273438 65.4375 C 98.113281 54.617188 85.925781 50.054688 78.605469 54.300781 C 71.585938 58.375 69.507812 70.464844 72.464844 85.597656 C 72.75 87.0625 73.082031 88.554688 73.457031 90.070312 C 71.734375 90.5625 70.066406 91.085938 68.476562 91.640625 C 54.21875 96.625 45.113281 104.433594 45.113281 112.535156 C 45.113281 120.898438 54.886719 129.292969 69.738281 134.382812 C 70.910156 134.78125 72.125 135.164062 73.378906 135.519531 C 72.96875 137.160156 72.617188 138.769531 72.320312 140.339844 C 69.503906 155.210938 71.703125 167.015625 78.703125 171.0625 C 85.929688 175.242188 98.066406 170.945312 109.878906 160.59375 C 110.816406 159.777344 111.75 158.90625 112.6875 158 C 113.90625 159.171875 115.121094 160.285156 116.328125 161.328125 C 127.773438 171.199219 139.074219 175.183594 146.066406 171.128906 C 153.289062 166.9375 155.636719 154.25 152.585938 138.820312 C 152.355469 137.640625 152.082031 136.4375 151.78125 135.214844 C 152.636719 134.960938 153.472656 134.699219 154.285156 134.429688 C 169.722656 129.296875 179.765625 121.015625 179.765625 112.535156 C 179.765625 104.40625 170.367188 96.542969 155.824219 91.523438 Z M 152.476562 128.957031 C 151.742188 129.199219 150.984375 129.4375 150.214844 129.664062 C 148.511719 124.257812 146.214844 118.503906 143.394531 112.5625 C 146.082031 106.761719 148.289062 101.085938 149.949219 95.710938 C 151.324219 96.109375 152.660156 96.53125 153.949219 96.976562 C 166.410156 101.277344 174.011719 107.636719 174.011719 112.535156 C 174.011719 117.75 165.804688 124.527344 152.476562 128.957031 Z M 146.945312 139.941406 C 148.296875 146.761719 148.484375 152.933594 147.589844 157.757812 C 146.792969 162.09375 145.175781 164.980469 143.183594 166.136719 C 138.9375 168.597656 129.867188 165.398438 120.082031 156.957031 C 118.957031 155.984375 117.824219 154.953125 116.695312 153.859375 C 120.488281 149.699219 124.28125 144.863281 127.984375 139.492188 C 134.488281 138.917969 140.636719 137.96875 146.21875 136.675781 C 146.492188 137.789062 146.734375 138.875 146.945312 139.941406 Z M 91.023438 165.710938 C 86.875 167.179688 83.574219 167.222656 81.578125 166.066406 C 77.332031 163.609375 75.566406 154.128906 77.972656 141.417969 C 78.25 139.960938 78.578125 138.464844 78.957031 136.933594 C 84.472656 138.15625 90.578125 139.039062 97.101562 139.566406 C 100.828125 144.824219 104.730469 149.652344 108.660156 153.882812 C 107.804688 154.714844 106.945312 155.507812 106.09375 156.25 C 100.871094 160.832031 95.636719 164.078125 91.023438 165.710938 Z M 71.597656 128.925781 C 65.035156 126.671875 59.613281 123.75 55.894531 120.554688 C 52.554688 117.691406 50.867188 114.84375 50.867188 112.535156 C 50.867188 107.621094 58.179688 101.347656 70.371094 97.089844 C 71.851562 96.570312 73.398438 96.082031 75.003906 95.625 C 76.691406 101.121094 78.902344 106.867188 81.566406 112.671875 C 78.867188 118.566406 76.625 124.40625 74.921875 129.96875 C 73.777344 129.636719 72.667969 129.289062 71.597656 128.925781 Z M 78.109375 84.492188 C 75.578125 71.527344 77.261719 61.746094 81.488281 59.292969 C 85.992188 56.675781 95.953125 60.40625 106.453125 69.75 C 107.125 70.347656 107.796875 70.972656 108.476562 71.621094 C 104.5625 75.832031 100.695312 80.625 97.003906 85.851562 C 90.671875 86.441406 84.609375 87.386719 79.035156 88.652344 C 78.683594 87.238281 78.375 85.847656 78.109375 84.492188 Z M 136.1875 98.871094 C 134.859375 96.5625 133.488281 94.3125 132.097656 92.121094 C 136.394531 92.664062 140.507812 93.386719 144.371094 94.269531 C 143.214844 98 141.769531 101.898438 140.066406 105.898438 C 138.84375 103.570312 137.550781 101.226562 136.1875 98.871094 Z M 112.503906 75.742188 C 115.160156 78.625 117.816406 81.839844 120.429688 85.332031 C 117.796875 85.207031 115.128906 85.140625 112.441406 85.140625 C 109.777344 85.140625 107.132812 85.207031 104.515625 85.328125 C 107.128906 81.871094 109.8125 78.65625 112.503906 75.742188 Z M 88.667969 98.910156 C 87.335938 101.222656 86.070312 103.554688 84.867188 105.890625 C 83.191406 101.90625 81.757812 97.992188 80.585938 94.210938 C 84.429688 93.347656 88.527344 92.644531 92.796875 92.109375 C 91.382812 94.320312 90 96.589844 88.667969 98.910156 Z M 92.917969 133.371094 C 88.507812 132.878906 84.347656 132.210938 80.507812 131.371094 C 81.699219 127.523438 83.160156 123.523438 84.871094 119.453125 C 86.078125 121.789062 87.351562 124.121094 88.691406 126.441406 C 90.054688 128.804688 91.46875 131.113281 92.917969 133.371094 Z M 112.660156 149.730469 C 109.9375 146.785156 107.21875 143.519531 104.5625 140.011719 C 107.136719 140.113281 109.769531 140.167969 112.441406 140.167969 C 115.1875 140.167969 117.898438 140.101562 120.566406 139.988281 C 117.949219 143.558594 115.296875 146.828125 112.660156 149.730469 Z M 140.117188 119.25 C 141.917969 123.359375 143.4375 127.335938 144.640625 131.125 C 140.738281 132.015625 136.519531 132.730469 132.082031 133.269531 C 133.480469 131.050781 134.859375 128.753906 136.214844 126.398438 C 137.585938 124.015625 138.886719 121.625 140.117188 119.25 Z M 131.226562 123.519531 C 129.125 127.179688 126.960938 130.667969 124.769531 133.964844 C 120.777344 134.25 116.648438 134.398438 112.441406 134.398438 C 108.25 134.398438 104.171875 134.269531 100.25 134.011719 C 97.964844 130.675781 95.757812 127.171875 93.667969 123.550781 C 91.582031 119.9375 89.664062 116.296875 87.921875 112.671875 C 89.660156 109.042969 91.578125 105.394531 93.652344 101.789062 L 93.652344 101.792969 C 95.730469 98.175781 97.917969 94.691406 100.179688 91.371094 C 104.183594 91.066406 108.289062 90.910156 112.441406 90.910156 C 116.613281 90.910156 120.71875 91.070312 124.722656 91.375 C 126.953125 94.667969 129.125 98.144531 131.210938 101.761719 C 133.320312 105.417969 135.261719 109.039062 137.015625 112.59375 C 135.269531 116.207031 133.332031 119.863281 131.226562 123.519531 Z M 143.09375 59.117188 C 147.605469 61.726562 149.359375 72.238281 146.523438 86.027344 C 146.34375 86.90625 146.140625 87.800781 145.917969 88.710938 C 140.332031 87.417969 134.269531 86.457031 127.921875 85.859375 C 124.21875 80.574219 120.382812 75.773438 116.53125 71.617188 C 117.570312 70.617188 118.605469 69.667969 119.628906 68.769531 C 129.570312 60.097656 138.867188 56.671875 143.09375 59.117188 Z M 112.441406 100.480469 C 119.078125 100.480469 124.464844 105.875 124.464844 112.535156 C 124.464844 119.1875 119.078125 124.589844 112.441406 124.589844 C 105.800781 124.589844 100.417969 119.1875 100.417969 112.535156 C 100.417969 105.875 105.800781 100.480469 112.441406 100.480469 Z M 112.441406 100.480469 " fill-opacity="1" fill-rule="nonzero"/></g></svg>