<svg xmlns="http://www.w3.org/2000/svg" xmlns:xlink="http://www.w3.org/1999/xlink" width="300" zoomAndPan="magnify" viewBox="0 0 224.87999 225" height="300" preserveAspectRatio="xMidYMid meet" version="1.0"><defs><clipPath id="390ab02292"><path d="M 0 0.0585938 L 224.761719 0.0585938 L 224.761719 224.9375 L 0 224.9375 Z M 0 0.0585938 " clip-rule="nonzero"/></clipPath><clipPath id="1e891376e1"><path d="M 0 0.0585938 L 224.761719 0.0585938 L 224.761719 224.9375 L 0 224.9375 Z M 0 0.0585938 " clip-rule="nonzero"/></clipPath><clipPath id="5cdec2178d"><path d="M 206.890625 224.941406 L 17.992188 224.941406 C 8.054688 224.941406 0 216.886719 0 206.949219 L 0 18.050781 C 0 8.113281 8.054688 0.0585938 17.992188 0.0585938 L 206.890625 0.0585938 C 216.824219 0.0585938 224.878906 8.113281 224.878906 18.050781 L 224.878906 206.949219 C 224.878906 216.886719 216.824219 224.941406 206.890625 224.941406 Z M 206.890625 224.941406 " clip-rule="nonzero"/></clipPath><clipPath id="520cbbe6df"><path d="M 0 0.0585938 L 224.761719 0.0585938 L 224.761719 224.9375 L 0 224.9375 Z M 0 0.0585938 " clip-rule="nonzero"/></clipPath><clipPath id="e5ceda50ef"><path d="M 206.890625 224.941406 L 17.992188 224.941406 C 8.054688 224.941406 0 216.886719 0 206.949219 L 0 18.050781 C 0 8.113281 8.054688 0.0585938 17.992188 0.0585938 L 206.890625 0.0585938 C 216.824219 0.0585938 224.878906 8.113281 224.878906 18.050781 L 224.878906 206.949219 C 224.878906 216.886719 216.824219 224.941406 206.890625 224.941406 Z M 206.890625 224.941406 " clip-rule="nonzero"/></clipPath><clipPath id="1e86a0cb68"><rect x="0" width="225" y="0" height="225"/></clipPath><clipPath id="519aea1860"><rect x="0" width="225" y="0" height="225"/></clipPath><clipPath id="e9f098c6bc"><path d="M 46 44.292969 L 168 44.292969 L 168 166 L 46 166 Z M 46 44.292969 " clip-rule="nonzero"/></clipPath></defs><g clip-path="url(#390ab02292)"><g transform="matrix(1, 0, 0, 1, 0, -0.000000000000003234)"><g clip-path="url(#519aea1860)"><g clip-path="url(#1e891376e1)"><g clip-path="url(#5cdec2178d)"><g transform="matrix(1, 0, 0, 1, 0, -0.000000000000003234)"><g clip-path="url(#1e86a0cb68)"><g clip-path="url(#520cbbe6df)"><g clip-path="url(#e5ceda50ef)"><path fill="#000000" d="M 224.878906 224.941406 L 0 224.941406 L 0 0.0585938 L 224.878906 0.0585938 Z M 224.878906 224.941406 " fill-opacity="1" fill-rule="nonzero"/></g></g></g></g></g></g></g></g></g><path stroke-linecap="round" transform="matrix(0.6559, 0, 0, 0.6559, 30.990467, 28.578241)" fill-opacity="1" fill="#ffffff" fill-rule="nonzero" stroke-linejoin="round" d="M 208.000493 128.002636 L 127.99948 207.997693 " stroke="#ffffff" stroke-width="32" stroke-opacity="1" stroke-miterlimit="4"/><path fill="#ffffff" d="M 156.921875 54.8125 L 57.226562 154.511719 " fill-opacity="1" fill-rule="nonzero"/><g clip-path="url(#e9f098c6bc)"><path stroke-linecap="round" transform="matrix(0.6559, 0, 0, 0.6559, 30.990467, 28.578241)" fill="none" stroke-linejoin="round" d="M 191.997908 39.997352 L 40.000152 192.001064 " stroke="#ffffff" stroke-width="32" stroke-opacity="1" stroke-miterlimit="4"/></g></svg>