<svg xmlns="http://www.w3.org/2000/svg" xmlns:xlink="http://www.w3.org/1999/xlink" width="300" zoomAndPan="magnify" viewBox="0 0 224.87999 225" height="300" preserveAspectRatio="xMidYMid meet" version="1.0"><defs><clipPath id="7753215f8b"><path d="M 0 0.0585938 L 224.761719 0.0585938 L 224.761719 224.9375 L 0 224.9375 Z M 0 0.0585938 " clip-rule="nonzero"/></clipPath><clipPath id="73f30e7494"><path d="M 0 0.0585938 L 224.761719 0.0585938 L 224.761719 224.9375 L 0 224.9375 Z M 0 0.0585938 " clip-rule="nonzero"/></clipPath><clipPath id="2da6c7ccb9"><path d="M 206.890625 224.941406 L 17.992188 224.941406 C 8.054688 224.941406 0 216.886719 0 206.949219 L 0 18.050781 C 0 8.113281 8.054688 0.0585938 17.992188 0.0585938 L 206.890625 0.0585938 C 216.824219 0.0585938 224.878906 8.113281 224.878906 18.050781 L 224.878906 206.949219 C 224.878906 216.886719 216.824219 224.941406 206.890625 224.941406 Z M 206.890625 224.941406 " clip-rule="nonzero"/></clipPath><clipPath id="c9c4f92e6b"><path d="M 0 0.0585938 L 224.761719 0.0585938 L 224.761719 224.9375 L 0 224.9375 Z M 0 0.0585938 " clip-rule="nonzero"/></clipPath><clipPath id="09f7caf044"><path d="M 206.890625 224.941406 L 17.992188 224.941406 C 8.054688 224.941406 0 216.886719 0 206.949219 L 0 18.050781 C 0 8.113281 8.054688 0.0585938 17.992188 0.0585938 L 206.890625 0.0585938 C 216.824219 0.0585938 224.878906 8.113281 224.878906 18.050781 L 224.878906 206.949219 C 224.878906 216.886719 216.824219 224.941406 206.890625 224.941406 Z M 206.890625 224.941406 " clip-rule="nonzero"/></clipPath><clipPath id="4d61c9208a"><rect x="0" width="225" y="0" height="225"/></clipPath><clipPath id="90bbc6f8f4"><rect x="0" width="225" y="0" height="225"/></clipPath><clipPath id="925815c6e7"><path d="M 45 72 L 179.902344 72 L 179.902344 153 L 45 153 Z M 45 72 " clip-rule="nonzero"/></clipPath></defs><g clip-path="url(#7753215f8b)"><g transform="matrix(1, 0, 0, 1, 0, -0.000000000000003234)"><g clip-path="url(#90bbc6f8f4)"><g clip-path="url(#73f30e7494)"><g clip-path="url(#2da6c7ccb9)"><g transform="matrix(1, 0, 0, 1, 0, -0.000000000000003234)"><g clip-path="url(#4d61c9208a)"><g clip-path="url(#c9c4f92e6b)"><g clip-path="url(#09f7caf044)"><path fill="#05b6d4" d="M 224.878906 224.941406 L 0 224.941406 L 0 0.0585938 L 224.878906 0.0585938 Z M 224.878906 224.941406 " fill-opacity="1" fill-rule="nonzero"/></g></g></g></g></g></g></g></g></g><g clip-path="url(#925815c6e7)"><path fill="#ffffff" d="M 112.4375 72.359375 C 94.597656 72.359375 83.445312 81.277344 78.988281 99.121094 C 85.675781 90.199219 93.480469 86.855469 102.402344 89.085938 C 107.492188 90.355469 111.128906 94.046875 115.160156 98.136719 C 121.71875 104.796875 129.308594 112.5 145.886719 112.5 C 163.730469 112.5 174.878906 103.578125 179.339844 85.738281 C 172.648438 94.660156 164.84375 98.003906 155.925781 95.773438 C 150.832031 94.503906 147.199219 90.8125 143.167969 86.71875 C 136.613281 80.0625 129.023438 72.359375 112.4375 72.359375 Z M 78.988281 112.5 C 61.144531 112.5 49.996094 121.421875 45.535156 139.261719 C 52.226562 130.339844 60.03125 126.996094 68.953125 129.226562 C 74.042969 130.496094 77.675781 134.1875 81.707031 138.28125 C 88.269531 144.9375 95.855469 152.640625 112.4375 152.640625 C 130.277344 152.640625 141.429688 143.71875 145.886719 125.878906 C 139.199219 134.800781 131.394531 138.144531 122.472656 135.914062 C 117.382812 134.644531 113.746094 130.953125 109.71875 126.863281 C 103.160156 120.203125 95.574219 112.5 78.988281 112.5 Z M 78.988281 112.5 " fill-opacity="1" fill-rule="nonzero"/></g></svg>